<svg xmlns="http://www.w3.org/2000/svg" height="24" viewBox="0 0 24 24" width="24">
  <path class="ytp-svg-fill ytp-svg-volume-animation-speaker" d="M 11.60 2.08 L 11.48 2.14 L 3.91 6.68 C 3.02 7.21 2.28 7.97 1.77 8.87 C 1.26 9.77 1.00 10.79 1 11.83 V 12.16 L 1.01 12.56 C 1.07 13.52 1.37 14.46 1.87 15.29 C 2.38 16.12 3.08 16.81 3.91 17.31 L 11.48 21.85 C 11.63 21.94 11.80 21.99 11.98 21.99 C 12.16 22.00 12.33 21.95 12.49 21.87 C 12.64 21.78 12.77 21.65 12.86 21.50 C 12.95 21.35 13 21.17 13 21 V 3 C 12.99 2.83 12.95 2.67 12.87 2.52 C 12.80 2.37 12.68 2.25 12.54 2.16 C 12.41 2.07 12.25 2.01 12.08 2.00 C 11.92 1.98 11.75 2.01 11.60 2.08 Z" fill="white"></path>
  
  <path class="ytp-svg-volume-animation-small-ripple" d=" M 15.53 7.05 C 15.35 7.22 15.25 7.45 15.24 7.70 C 15.23 7.95 15.31 8.19 15.46 8.38 L 15.53 8.46 L 15.70 8.64 C 16.09 9.06 16.39 9.55 16.61 10.08 L 16.70 10.31 C 16.90 10.85 17 11.42 17 12 L 16.99 12.24 C 16.96 12.73 16.87 13.22 16.70 13.68 L 16.61 13.91 C 16.36 14.51 15.99 15.07 15.53 15.53 C 15.35 15.72 15.25 15.97 15.26 16.23 C 15.26 16.49 15.37 16.74 15.55 16.92 C 15.73 17.11 15.98 17.21 16.24 17.22 C 16.50 17.22 16.76 17.12 16.95 16.95 C 17.6 16.29 18.11 15.52 18.46 14.67 L 18.59 14.35 C 18.82 13.71 18.95 13.03 18.99 12.34 L 19 12 C 18.99 11.19 18.86 10.39 18.59 9.64 L 18.46 9.32 C 18.15 8.57 17.72 7.89 17.18 7.3 L 16.95 7.05 L 16.87 6.98 C 16.68 6.82 16.43 6.74 16.19 6.75 C 15.94 6.77 15.71 6.87 15.53 7.05" fill="white" transform="translate(18, 12) scale(1) translate(-18,-12)"></path>
  
</svg>